<svg viewBox="0 0 295.95 81.54" xmlns="http://www.w3.org/2000/svg" xmlns:xlink="http://www.w3.org/1999/xlink"><radialGradient id="a" cx="39.5204" cy="54.519" gradientUnits="userSpaceOnUse" r="34.0578"><stop offset=".25" stop-color="#fff"/><stop offset=".84" stop-color="#d0b38d"/></radialGradient><g transform="translate(-13.46 -13.49)"><path d="m39.38 94.78a3.49 3.49 0 0 1 -1-1.09l-.06-.08h-.1c-16.92-3.98-26.35-29.97-24.22-50.83a44 44 0 0 1 1.2-6.78 32.59 32.59 0 0 1 2.17-6 21.9 21.9 0 0 1 3.51-5.27 13.73 13.73 0 0 1 10.05-4.73c.09 0 .33 0 .35-.23a5.16 5.16 0 0 1 3.62-2.46h.18v-.18a4.39 4.39 0 0 1 4.26-3.32 4.44 4.44 0 0 1 4.26 3.31v.17h.18a5.1 5.1 0 0 1 3.61 2.46c0 .23.27.24.35.24a13.74 13.74 0 0 1 10.06 4.8 22.28 22.28 0 0 1 4 6.27l.22.51a39.93 39.93 0 0 1 2.7 11.24c2.12 20.86-7.31 46.85-24.24 50.8h-.1l-.06.08a3.51 3.51 0 0 1 -.94 1.09z" fill="url(#a)"/><path d="m65 42.76a44.3 44.3 0 0 0 -.8-5.14 38.28 38.28 0 0 0 -1.3-4.6 29.83 29.83 0 0 0 -2.08-4.61 21.65 21.65 0 0 0 -2.76-3.83 13.94 13.94 0 0 0 -10.25-4.88h-.08a5.4 5.4 0 0 0 -3.89-2.7 4.6 4.6 0 0 0 -8.93 0 5.36 5.36 0 0 0 -3.91 2.7h-.09a13.94 13.94 0 0 0 -10.21 4.88 21.65 21.65 0 0 0 -2.76 3.83 28.87 28.87 0 0 0 -2.07 4.59 36.56 36.56 0 0 0 -1.31 4.6 46.56 46.56 0 0 0 -.8 5.14c-2.15 21.13 7.35 47.1 24.43 51.08.26.39.86 1.2 1.19 1.2s.92-.81 1.18-1.2c17.09-3.96 26.59-29.93 24.44-51.06zm-25.62-28.45a3.62 3.62 0 0 1 3.62 2.58 4.52 4.52 0 0 0 -3.6 2.31s0 .08-.06.08-.06-.07-.07-.08a4.52 4.52 0 0 0 -3.6-2.31 3.64 3.64 0 0 1 3.71-2.58zm-1.74 4a3.26 3.26 0 0 1 1.49 2c.06.25.15.39.25.39s.19-.14.25-.39a3.24 3.24 0 0 1 1.48-2 3.9 3.9 0 0 1 5.64 1.48 11.71 11.71 0 0 0 -1.55.39 6.05 6.05 0 0 0 -2.2 1.24 8.73 8.73 0 0 0 -2.84 5.7c-.63 6.83 7.21 5.76 7.6 5.72 1 0 1.78-1.59 1.78-3.71s-.79-3.71-1.78-3.71c-.61 0-1.66.49-1.75 2.38-.07 1.33.58 3.1 1.42 3.21.44.06.83-.71 1-1.49s.05-1.75-.56-1.9a.36.36 0 0 0 -.43.26c0 .17.38.47.36 1.25 0 1.17-1.2.59-1-1.27.14-1.64 1-1.54 1-1.54.47 0 1.18 1 1.18 2.81 0 1.64-.79 3.4-2.3 2.48a4.92 4.92 0 0 1 -1.42-4.72c.16-.75.82-2.82 2.93-2.82 3 0 5.88 1.6 8.14 4.58-.25.8-1.82 3.83-6.8 6.73l-.27.15a10.2 10.2 0 0 0 -4.61-.91 25.19 25.19 0 0 0 -4.33.68 3.68 3.68 0 0 1 -.86.14 3.59 3.59 0 0 1 -.86-.14 25.34 25.34 0 0 0 -4.33-.68 10.17 10.17 0 0 0 -4.61.91l-.27-.15c-5-2.9-6.56-5.93-6.81-6.73 2.27-3 5.1-4.58 8.15-4.58 2.11 0 2.76 2.07 2.92 2.82a4.92 4.92 0 0 1 -1.42 4.72c-1.5.92-2.29-.84-2.29-2.48 0-1.83.71-2.81 1.18-2.81 0 0 .87-.1 1 1.54.16 1.86-1 2.44-1 1.27 0-.78.41-1.08.36-1.25a.36.36 0 0 0 -.43-.26c-.61.15-.67 1.22-.56 1.9s.53 1.55 1 1.49c.84-.11 1.5-1.88 1.43-3.21-.1-1.89-1.15-2.38-1.76-2.38-1 0-1.77 1.6-1.77 3.71s.61 3.71 1.61 3.71c.4 0 8.23 1.11 7.61-5.72a8.83 8.83 0 0 0 -2.84-5.7 6.14 6.14 0 0 0 -2.22-1.23 11.82 11.82 0 0 0 -1.55-.39 3.9 3.9 0 0 1 5.64-1.48zm-14.82 28.69a28.19 28.19 0 0 0 -.29 3.09 41.44 41.44 0 0 0 1.91 14.24 45.75 45.75 0 0 0 3.86 8.67 10.84 10.84 0 0 1 -4.8 2.19 62.39 62.39 0 0 1 -6.05-29.73 15.26 15.26 0 0 0 5.37 1.54zm-5.34-2.05c.41-6.84 2.15-12.2 4.66-15.77.45 1.16 2.4 4.06 6.9 6.71-3.82 2.3-5.56 7.07-6.14 10.61a14.78 14.78 0 0 1 -5.42-1.59zm11.08 28.49c2.87 5 5.71 7.91 7.89 9.47a10.76 10.76 0 0 1 -3.31 4.09c-3.74-2.52-6.91-6.51-9.41-11.33a11.15 11.15 0 0 0 4.83-2.23zm8.32 9.77a11.19 11.19 0 0 0 2.5 1.38 11.46 11.46 0 0 0 2.49-1.38 11.21 11.21 0 0 0 3.3 4.06 17.67 17.67 0 0 1 -3.34 1.67s0-.09 0-.13c-.24-1.23-1.85-1.48-2.43-1.48s-2.2.25-2.44 1.48v.13a17.67 17.67 0 0 1 -3.34-1.67 11.11 11.11 0 0 0 3.26-4.06zm5.43-.3c2.17-1.56 5-4.51 7.89-9.47a11.08 11.08 0 0 0 4.8 2.21c-2.49 4.82-5.66 8.81-9.41 11.33a10.75 10.75 0 0 1 -3.28-4.07zm8.14-9.91a46.43 46.43 0 0 0 3.87-8.71 42.89 42.89 0 0 0 1.55-6.84 41.67 41.67 0 0 0 .36-7.4c0-.69-.11-1.78-.3-3.09a15.19 15.19 0 0 0 5.37-1.5 62.26 62.26 0 0 1 -6 29.73 10.82 10.82 0 0 1 -4.85-2.19zm5.4-26.54c-.58-3.54-2.34-8.21-6.14-10.61 4.5-2.65 6.46-5.55 6.9-6.71 2.52 3.57 4.25 8.93 4.66 15.77a14.71 14.71 0 0 1 -5.42 1.55zm-19.26 45.88a21.47 21.47 0 0 1 -5.48-2.74 24.69 24.69 0 0 1 -3-2.44 28.21 28.21 0 0 1 -2.2-2.31c-.47-.55-.92-1.11-1.36-1.69a44.49 44.49 0 0 1 -5.21-9 60.25 60.25 0 0 1 -3.19-9.53 65.68 65.68 0 0 1 -1.68-10.13 61.18 61.18 0 0 1 -.06-10.13c.15-1.8.37-3.6.69-5.38a35.94 35.94 0 0 1 1.34-5.24 29 29 0 0 1 2-4.55 19.69 19.69 0 0 1 2.87-4.2 15.31 15.31 0 0 1 3.7-2.9 11.76 11.76 0 0 1 1.81-.81c.31-.12.63-.22.95-.31a8.58 8.58 0 0 1 1-.24 13.68 13.68 0 0 1 2.39-.19 7.08 7.08 0 0 1 3.63 1 7.46 7.46 0 0 1 3.11 5.64c.37 4.22-3.93 4.89-4.77 4.88-.13 0-.2-.12.22-.55a6.1 6.1 0 0 0 1-4.77 3.94 3.94 0 0 0 -3.76-3.45 10.44 10.44 0 0 0 -7.59 3.63 21.37 21.37 0 0 0 -4.17 7.35 39.71 39.71 0 0 0 -2.05 10.63 57.9 57.9 0 0 0 .22 9.94 64.1 64.1 0 0 0 1.82 9.9 57.07 57.07 0 0 0 3.24 9.25 40.48 40.48 0 0 0 5.12 8.42 24.24 24.24 0 0 0 7.6 6.43 17.78 17.78 0 0 0 2.06.89 6.29 6.29 0 0 0 .62 2.9 7 7 0 0 1 -.87-.3zm3.08 1.45s-.15.18-.29.19a.51.51 0 0 1 -.29-.19 6 6 0 0 1 -1.42-4.79c.12-.6 1.13-.87 1.71-.88s1.58.28 1.7.88a6.08 6.08 0 0 1 -1.41 4.79zm24.64-39.34a65.66 65.66 0 0 1 -1.67 10.13 60.29 60.29 0 0 1 -3.2 9.53 44.49 44.49 0 0 1 -5.21 9c-.43.58-.89 1.14-1.36 1.69a29.88 29.88 0 0 1 -2.19 2.31 25.57 25.57 0 0 1 -3 2.44 21.47 21.47 0 0 1 -5.48 2.74 6.52 6.52 0 0 1 -.87.26 6.29 6.29 0 0 0 .62-2.9 16.4 16.4 0 0 0 2.05-.84 24.24 24.24 0 0 0 7.6-6.43 40.48 40.48 0 0 0 5.09-8.38 57.07 57.07 0 0 0 3.31-9.25 62.93 62.93 0 0 0 1.82-9.9 57.91 57.91 0 0 0 .18-9.94 40.12 40.12 0 0 0 -2-10.63 21.21 21.21 0 0 0 -4.17-7.35 10.44 10.44 0 0 0 -7.58-3.64 4 4 0 0 0 -3.76 3.45 6.14 6.14 0 0 0 1 4.77c.42.43.35.55.22.55-.84 0-5.14-.66-4.77-4.88a7.44 7.44 0 0 1 3.06-5.64 7 7 0 0 1 3.62-1 13.53 13.53 0 0 1 2.39.19 9.82 9.82 0 0 1 .99.27c.32.09.64.19 1 .31a12.09 12.09 0 0 1 1.8.81 15.12 15.12 0 0 1 3.7 2.9 19.74 19.74 0 0 1 3 4.14 29 29 0 0 1 2 4.55 35.91 35.91 0 0 1 1.33 5.24 54.19 54.19 0 0 1 .69 5.38 60.11 60.11 0 0 1 -.21 10.12z" fill="#231f20"/><path d="m55.3 50.18c-.11-2.51-.84-10.18-6.06-13.5a8.69 8.69 0 0 0 -4.09-1.13c-2.57-.17-4.46.81-5.74.84h-.07c-1.27 0-3.19-1-5.75-.84a8.65 8.65 0 0 0 -4.08 1.13c-5.21 3.32-6 11-6.05 13.5a40.57 40.57 0 0 0 3.3 17.74c3.61 8 8 13.57 12.27 15.48l.35.15.34-.15c4.28-1.91 8.66-7.53 12.28-15.48a40.68 40.68 0 0 0 3.3-17.74z" fill="#cd1543"/><path d="m47.13 44.15v1.74h.35.16a1.09 1.09 0 0 1 .77.26 1.2 1.2 0 0 1 .2 1s-3.49 15.13-4.16 18l-4.91-23.54v-.09h-.84v.09l-3.62 23.23-4.08-17.7a2.35 2.35 0 0 1 0-.26 1.16 1.16 0 0 1 .29-.89.88.88 0 0 1 .67-.2h.34v-1.64h-5.88v1.64h.26c.12 0 .77.19.88.78l7.11 30.53v.08h1v-.09l3.32-21.77 4.24 21.77v.09h.92l6.85-30.59a.91.91 0 0 1 .94-.7h.06.34v-1.74z" fill="#fff"/><g fill="#231f20"><path d="m76.18 76.3a2.4 2.4 0 0 0 .95-.18 2 2 0 0 0 .71-.5 2.16 2.16 0 0 0 .44-.77 3.12 3.12 0 0 0 .15-1v-5.53h1.49v5.54a4.2 4.2 0 0 1 -.26 1.49 3.37 3.37 0 0 1 -.74 1.19 3.45 3.45 0 0 1 -1.18.79 4.49 4.49 0 0 1 -3.12 0 3.32 3.32 0 0 1 -1.17-.79 3.4 3.4 0 0 1 -.75-1.19 4.2 4.2 0 0 1 -.25-1.49v-5.54h1.49v5.53a3.13 3.13 0 0 0 .15 1 2.25 2.25 0 0 0 .44.77 2 2 0 0 0 .71.5 2.32 2.32 0 0 0 .94.18z"/><path d="m89.59 68.32v9.18h-.76a.65.65 0 0 1 -.29-.06.6.6 0 0 1 -.23-.2l-5-6.48v.37s0 .23 0 .34v6h-1.31v-9.15h.94.13a.3.3 0 0 1 .1.07l.11.13 5 6.48v-.38c0-.13 0-.25 0-.36v-6z"/><path d="m93.25 77.5h-1.5v-9.18h1.5z"/><path d="m103.18 68.32-3.72 9.18h-1.35l-3.72-9.18h1.19a.53.53 0 0 1 .32.1.79.79 0 0 1 .19.25l2.36 6a8.93 8.93 0 0 1 .35 1.16c0-.21.1-.42.15-.61s.11-.38.18-.55l2.36-6a.51.51 0 0 1 .18-.24.47.47 0 0 1 .31-.11z"/><path d="m110.05 76.3v1.2h-5.72v-9.18h5.67v1.21h-4.23v2.76h3.38v1.17h-3.38v2.84z"/><path d="m118.54 77.5h-1.33a.62.62 0 0 1 -.58-.3l-2.14-3.09a.63.63 0 0 0 -.23-.23.82.82 0 0 0 -.39-.07h-.82v3.69h-1.5v-9.18h2.71a5.55 5.55 0 0 1 1.56.19 3.05 3.05 0 0 1 1.07.52 2.06 2.06 0 0 1 .62.82 2.83 2.83 0 0 1 .2 1.07 2.86 2.86 0 0 1 -.14.89 2.5 2.5 0 0 1 -.42.75 2.68 2.68 0 0 1 -.66.59 4.08 4.08 0 0 1 -.9.39 1.47 1.47 0 0 1 .47.46zm-4.32-4.78a3 3 0 0 0 .89-.12 1.86 1.86 0 0 0 .64-.35 1.41 1.41 0 0 0 .38-.53 1.73 1.73 0 0 0 .13-.69 1.4 1.4 0 0 0 -.5-1.15 2.4 2.4 0 0 0 -1.5-.39h-1.21v3.23z"/><path d="m124.56 69.89a.65.65 0 0 1 -.15.17.29.29 0 0 1 -.19 0 .48.48 0 0 1 -.22-.06 3.62 3.62 0 0 0 -.37-.22 2.8 2.8 0 0 0 -.52-.23 2.18 2.18 0 0 0 -.72-.11 2 2 0 0 0 -.67.1 1.53 1.53 0 0 0 -.49.26 1.06 1.06 0 0 0 -.29.41 1.19 1.19 0 0 0 -.1.51.93.93 0 0 0 .18.58 1.78 1.78 0 0 0 .49.4 3.67 3.67 0 0 0 .69.29l.8.26c.27.1.53.2.79.32a2.74 2.74 0 0 1 .69.45 2.19 2.19 0 0 1 .49.67 2.36 2.36 0 0 1 .19 1 2.9 2.9 0 0 1 -.22 1.14 2.8 2.8 0 0 1 -.6.94 3.11 3.11 0 0 1 -1 .63 3.61 3.61 0 0 1 -1.32.23 4 4 0 0 1 -.86-.09 5 5 0 0 1 -.8-.24 4.38 4.38 0 0 1 -.71-.38 3.62 3.62 0 0 1 -.59-.5l.43-.71a.4.4 0 0 1 .15-.14.33.33 0 0 1 .19-.06.58.58 0 0 1 .33.14l.43.3a3.15 3.15 0 0 0 .61.3 2.4 2.4 0 0 0 .85.14 1.82 1.82 0 0 0 1.26-.4 1.39 1.39 0 0 0 .44-1.09 1 1 0 0 0 -.19-.63 1.49 1.49 0 0 0 -.48-.41 3.41 3.41 0 0 0 -.7-.28l-.79-.25c-.26-.09-.53-.19-.79-.3a2.52 2.52 0 0 1 -.69-.46 2.38 2.38 0 0 1 -.49-.7 2.67 2.67 0 0 1 -.18-1 2.46 2.46 0 0 1 .76-1.79 2.76 2.76 0 0 1 .92-.57 3.28 3.28 0 0 1 1.25-.22 4 4 0 0 1 1.45.25 3.33 3.33 0 0 1 1.14.71z"/><path d="m128.24 77.5h-1.5v-9.18h1.5z"/><path d="m136.7 69.57h-2.87v7.93h-1.48v-7.93h-2.87v-1.25h7.22z"/><path d="m142.21 73.91v3.59h-1.49v-3.59l-3.35-5.59h1.3a.51.51 0 0 1 .32.1.78.78 0 0 1 .19.24l1.88 3.34.23.47c.07.15.13.3.19.44a4 4 0 0 1 .17-.44l.23-.47 1.87-3.29a.76.76 0 0 1 .18-.23.5.5 0 0 1 .32-.11h1.31z"/><path d="m158.54 72.91a5.19 5.19 0 0 1 -.33 1.88 4.25 4.25 0 0 1 -.94 1.49 4.4 4.4 0 0 1 -1.44 1 5 5 0 0 1 -1.88.35 4.9 4.9 0 0 1 -1.87-.35 4.45 4.45 0 0 1 -1.45-1 4.25 4.25 0 0 1 -.94-1.49 5.52 5.52 0 0 1 0-3.76 4.21 4.21 0 0 1 .94-1.48 4.32 4.32 0 0 1 1.45-1 4.9 4.9 0 0 1 1.87-.35 5 5 0 0 1 1.88.35 4.28 4.28 0 0 1 1.44 1 4.21 4.21 0 0 1 .94 1.48 5.23 5.23 0 0 1 .33 1.88zm-1.52 0a4.5 4.5 0 0 0 -.22-1.42 2.88 2.88 0 0 0 -.61-1.07 2.79 2.79 0 0 0 -1-.68 3.38 3.38 0 0 0 -1.27-.23 3.42 3.42 0 0 0 -1.27.23 2.79 2.79 0 0 0 -1 .68 3 3 0 0 0 -.62 1.07 4.94 4.94 0 0 0 0 2.85 3 3 0 0 0 .62 1.07 2.76 2.76 0 0 0 1 .67 3.42 3.42 0 0 0 1.27.23 3.38 3.38 0 0 0 1.27-.23 2.76 2.76 0 0 0 1-.67 2.88 2.88 0 0 0 .61-1.07 4.52 4.52 0 0 0 .2-1.43z"/><path d="m161.69 69.53v2.94h3.59v1.2h-3.59v3.83h-1.5v-9.18h5.73v1.21z"/><path d="m182.77 68.32-2.86 9.18h-1.34l-2.16-6.59c0-.07 0-.15-.07-.23s0-.18-.07-.28l-.06.28c0 .08-.05.16-.08.23l-2.13 6.59h-1.35l-2.85-9.18h1.2a.49.49 0 0 1 .32.1.42.42 0 0 1 .18.25l1.72 5.88q0 .2.09.42c0 .14.06.3.09.46 0-.16.06-.32.1-.47s.08-.29.12-.41l2-5.88a.51.51 0 0 1 .18-.24.5.5 0 0 1 .32-.11h.43a.53.53 0 0 1 .32.1.64.64 0 0 1 .18.25l2 5.88a3.84 3.84 0 0 1 .11.4c0 .14.07.29.1.45q0-.24.09-.45c0-.14.06-.28.09-.4l1.72-5.88a.42.42 0 0 1 .17-.25.58.58 0 0 1 .32-.1z"/><path d="m185.49 77.5h-1.49v-9.18h1.49z"/><path d="m192.48 69.89a.42.42 0 0 1 -.15.17.29.29 0 0 1 -.19 0 .48.48 0 0 1 -.27-.1 3.62 3.62 0 0 0 -.37-.22 2.53 2.53 0 0 0 -.52-.23 2.12 2.12 0 0 0 -.71-.11 1.93 1.93 0 0 0 -.67.1 1.34 1.34 0 0 0 -.49.26 1.21 1.21 0 0 0 -.3.41 1.36 1.36 0 0 0 -.1.51.94.94 0 0 0 .19.58 1.65 1.65 0 0 0 .49.4 3.67 3.67 0 0 0 .69.29l.79.26c.27.1.54.2.8.32a2.93 2.93 0 0 1 .69.45 2 2 0 0 1 .67 1.64 3.08 3.08 0 0 1 -.21 1.14 2.68 2.68 0 0 1 -.61.94 3 3 0 0 1 -1 .63 3.67 3.67 0 0 1 -1.33.23 4.12 4.12 0 0 1 -.86-.09 4.84 4.84 0 0 1 -.79-.24 4.48 4.48 0 0 1 -.72-.38 4.1 4.1 0 0 1 -.59-.5l.44-.71a.32.32 0 0 1 .14-.14.36.36 0 0 1 .2-.06.53.53 0 0 1 .32.14l.44.3a3 3 0 0 0 .6.3 2.46 2.46 0 0 0 .86.14 1.77 1.77 0 0 0 1.25-.4 1.35 1.35 0 0 0 .44-1.09 1 1 0 0 0 -.18-.63 1.53 1.53 0 0 0 -.49-.41 3.11 3.11 0 0 0 -.69-.28l-.79-.25c-.27-.09-.53-.19-.79-.3a2.52 2.52 0 0 1 -.69-.46 2.06 2.06 0 0 1 -.49-.7 2.66 2.66 0 0 1 -.19-1 2.52 2.52 0 0 1 .77-1.79 2.57 2.57 0 0 1 .92-.57 3.24 3.24 0 0 1 1.25-.22 4 4 0 0 1 1.45.25 3.33 3.33 0 0 1 1.14.71z"/><path d="m201 75.46a.29.29 0 0 1 .21.09l.59.65a3.81 3.81 0 0 1 -1.37 1 4.84 4.84 0 0 1 -2 .37 4.61 4.61 0 0 1 -1.82-.35 4 4 0 0 1 -1.39-1 4.31 4.31 0 0 1 -.88-1.48 5.53 5.53 0 0 1 -.31-1.9 5.21 5.21 0 0 1 .33-1.89 4.35 4.35 0 0 1 .92-1.49 4.05 4.05 0 0 1 1.43-1 4.7 4.7 0 0 1 1.83-.35 4.6 4.6 0 0 1 1.76.32 4.31 4.31 0 0 1 1.32.86l-.49.7a.68.68 0 0 1 -.12.12.36.36 0 0 1 -.19 0 .5.5 0 0 1 -.29-.12 3.5 3.5 0 0 0 -.42-.26 2.92 2.92 0 0 0 -.63-.26 3.48 3.48 0 0 0 -2.15.11 2.42 2.42 0 0 0 -.94.67 3 3 0 0 0 -.62 1.07 4.52 4.52 0 0 0 -.22 1.43 4.37 4.37 0 0 0 .23 1.45 3.06 3.06 0 0 0 .63 1.07 2.62 2.62 0 0 0 .95.66 2.83 2.83 0 0 0 1.16.23 4.75 4.75 0 0 0 .69 0 3.06 3.06 0 0 0 .56-.13 2.65 2.65 0 0 0 .48-.23 3.43 3.43 0 0 0 .45-.35.35.35 0 0 1 .3.01z"/><path d="m211.53 72.91a5.19 5.19 0 0 1 -.33 1.88 4.25 4.25 0 0 1 -.94 1.49 4.4 4.4 0 0 1 -1.44 1 5 5 0 0 1 -1.88.35 4.9 4.9 0 0 1 -1.87-.35 4.45 4.45 0 0 1 -1.45-1 4.25 4.25 0 0 1 -.94-1.49 5.52 5.52 0 0 1 0-3.76 4.21 4.21 0 0 1 .94-1.48 4.32 4.32 0 0 1 1.45-1 4.9 4.9 0 0 1 1.87-.35 5 5 0 0 1 1.88.35 4.28 4.28 0 0 1 1.44 1 4.21 4.21 0 0 1 .94 1.45 5.23 5.23 0 0 1 .33 1.91zm-1.52 0a4.23 4.23 0 0 0 -.22-1.42 2.88 2.88 0 0 0 -.61-1.07 2.7 2.7 0 0 0 -1-.68 3.38 3.38 0 0 0 -1.27-.23 3.42 3.42 0 0 0 -1.27.23 2.79 2.79 0 0 0 -1 .68 3 3 0 0 0 -.62 1.07 4.94 4.94 0 0 0 0 2.85 3 3 0 0 0 .62 1.07 2.76 2.76 0 0 0 1 .67 3.42 3.42 0 0 0 1.27.23 3.38 3.38 0 0 0 1.27-.23 2.68 2.68 0 0 0 1-.67 2.88 2.88 0 0 0 .61-1.07 4.25 4.25 0 0 0 .21-1.43z"/><path d="m220.78 68.32v9.18h-.78a.65.65 0 0 1 -.29-.06.6.6 0 0 1 -.23-.2l-5-6.48v.37s0 .23 0 .34v6h-1.31v-9.15h.94.13a.3.3 0 0 1 .1.07l.11.13 5 6.48v-.38c0-.13 0-.25 0-.36v-6z"/><path d="m227.75 69.89a.65.65 0 0 1 -.15.17.3.3 0 0 1 -.19 0 .48.48 0 0 1 -.27-.1c-.1-.07-.23-.14-.37-.22a2.8 2.8 0 0 0 -.52-.23 2.18 2.18 0 0 0 -.72-.11 2 2 0 0 0 -.67.1 1.43 1.43 0 0 0 -.49.26 1.06 1.06 0 0 0 -.29.41 1.19 1.19 0 0 0 -.1.51.93.93 0 0 0 .18.58 1.78 1.78 0 0 0 .49.4 3.67 3.67 0 0 0 .69.29l.8.26c.27.1.53.2.79.32a2.74 2.74 0 0 1 .69.45 2 2 0 0 1 .67 1.64 3.08 3.08 0 0 1 -.21 1.14 2.68 2.68 0 0 1 -.61.94 3 3 0 0 1 -1 .63 3.67 3.67 0 0 1 -1.33.23 4 4 0 0 1 -.85-.09 5 5 0 0 1 -.8-.24 4.38 4.38 0 0 1 -.71-.38 3.62 3.62 0 0 1 -.59-.5l.43-.71a.4.4 0 0 1 .15-.14.31.31 0 0 1 .19-.06.58.58 0 0 1 .33.14l.43.3a3.15 3.15 0 0 0 .61.3 2.36 2.36 0 0 0 .85.14 1.77 1.77 0 0 0 1.25-.4 1.36 1.36 0 0 0 .45-1.09 1 1 0 0 0 -.19-.63 1.43 1.43 0 0 0 -.49-.41 3.11 3.11 0 0 0 -.69-.28l-.79-.25c-.27-.09-.53-.19-.79-.3a2.52 2.52 0 0 1 -.69-.46 2.38 2.38 0 0 1 -.49-.7 2.67 2.67 0 0 1 -.18-1 2.46 2.46 0 0 1 .76-1.79 2.76 2.76 0 0 1 .92-.57 3.28 3.28 0 0 1 1.25-.22 4 4 0 0 1 1.45.25 3.33 3.33 0 0 1 1.14.71z"/><path d="m231.42 77.5h-1.49v-9.18h1.49z"/><path d="m241.18 68.32v9.18h-.76a.65.65 0 0 1 -.29-.06.6.6 0 0 1 -.23-.2l-5-6.48v.37.34 6h-1.32v-9.15h.94.13a.34.34 0 0 1 .11.07l.11.13 5 6.48c0-.13 0-.26 0-.38s0-.25 0-.36v-6z"/><path d="m243.19 72.62h5.14v1h-5.14z"/><path d="m260.1 68.32v9.18h-1.31v-6.29c0-.1 0-.21 0-.33v-.37l-2.91 5.49a.56.56 0 0 1 -.53.34h-.21a.55.55 0 0 1 -.53-.34l-3-5.46a2.22 2.22 0 0 1 0 .37v.34 6.25h-1.31v-9.18h1.11a.83.83 0 0 1 .31 0 .37.37 0 0 1 .2.21l2.94 5.34a2.64 2.64 0 0 1 .18.38c.06.13.11.26.16.4 0-.14.11-.28.16-.41s.12-.26.19-.39l2.9-5.32c.06-.12.12-.19.19-.21a.9.9 0 0 1 .31 0z"/><path d="m270 77.5h-1.16a.47.47 0 0 1 -.32-.1.55.55 0 0 1 -.18-.24l-.77-2h-3.95l-.76 2a.76.76 0 0 1 -.18.23.45.45 0 0 1 -.32.11h-1.15l3.64-9.18h1.51zm-2.83-3.44-1.17-3.35a8.5 8.5 0 0 1 -.31-1c-.05.2-.1.38-.16.55a4.44 4.44 0 0 1 -.15.44l-1.26 3.35z"/><path d="m279.23 72.91a5.14 5.14 0 0 1 -.33 1.87 4.32 4.32 0 0 1 -.94 1.45 4.18 4.18 0 0 1 -1.44.94 5.15 5.15 0 0 1 -1.88.33h-3.47v-9.18h3.47a5 5 0 0 1 1.88.34 4 4 0 0 1 1.44.94 4.22 4.22 0 0 1 .94 1.45 5 5 0 0 1 .33 1.86zm-1.52 0a4.5 4.5 0 0 0 -.22-1.42 3 3 0 0 0 -.61-1.06 2.76 2.76 0 0 0 -1-.67 3.38 3.38 0 0 0 -1.27-.23h-2v6.77h2a3.38 3.38 0 0 0 1.27-.23 2.64 2.64 0 0 0 1-.67 3 3 0 0 0 .61-1.06 4.52 4.52 0 0 0 .22-1.43z"/><path d="m282.38 77.5h-1.5v-9.18h1.5z"/><path d="m289.37 69.89a.65.65 0 0 1 -.15.17.3.3 0 0 1 -.19 0 .48.48 0 0 1 -.27-.1c-.1-.07-.23-.14-.37-.22a2.8 2.8 0 0 0 -.52-.23 2.18 2.18 0 0 0 -.72-.11 2 2 0 0 0 -.67.1 1.53 1.53 0 0 0 -.49.26 1.06 1.06 0 0 0 -.29.41 1.19 1.19 0 0 0 -.1.51.93.93 0 0 0 .18.58 1.78 1.78 0 0 0 .49.4 3.67 3.67 0 0 0 .73.34l.8.26c.27.1.53.2.79.32a2.74 2.74 0 0 1 .69.45 2.19 2.19 0 0 1 .49.67 2.37 2.37 0 0 1 .18 1 3.08 3.08 0 0 1 -.21 1.14 2.8 2.8 0 0 1 -.6.94 3.11 3.11 0 0 1 -1 .63 3.67 3.67 0 0 1 -1.33.23 4 4 0 0 1 -.85-.09 5 5 0 0 1 -.8-.24 4.38 4.38 0 0 1 -.71-.38 3.62 3.62 0 0 1 -.59-.5l.43-.71a.4.4 0 0 1 .15-.14.33.33 0 0 1 .19-.06.58.58 0 0 1 .33.14l.43.3a3.15 3.15 0 0 0 .61.3 2.4 2.4 0 0 0 .85.14 1.82 1.82 0 0 0 1.26-.4 1.39 1.39 0 0 0 .44-1.09 1 1 0 0 0 -.19-.63 1.49 1.49 0 0 0 -.48-.41 3.41 3.41 0 0 0 -.7-.28l-.79-.25c-.26-.09-.53-.19-.79-.3a2.52 2.52 0 0 1 -.69-.46 2.38 2.38 0 0 1 -.49-.7 2.67 2.67 0 0 1 -.18-1 2.46 2.46 0 0 1 .76-1.88 2.76 2.76 0 0 1 .92-.57 3.28 3.28 0 0 1 1.25-.22 4 4 0 0 1 1.45.25 3.33 3.33 0 0 1 1.14.71z"/><path d="m300.16 72.91a5.19 5.19 0 0 1 -.33 1.88 4.25 4.25 0 0 1 -.94 1.49 4.4 4.4 0 0 1 -1.44 1 5 5 0 0 1 -1.88.35 4.9 4.9 0 0 1 -1.87-.35 4.45 4.45 0 0 1 -1.45-1 4.4 4.4 0 0 1 -.94-1.49 5.52 5.52 0 0 1 0-3.76 4.3 4.3 0 0 1 2.39-2.46 4.9 4.9 0 0 1 1.87-.35 5 5 0 0 1 1.88.35 4.28 4.28 0 0 1 1.44 1 4.21 4.21 0 0 1 .94 1.48 5.23 5.23 0 0 1 .33 1.86zm-1.52 0a4.23 4.23 0 0 0 -.22-1.42 2.88 2.88 0 0 0 -.61-1.07 2.75 2.75 0 0 0 -1-.68 3.47 3.47 0 0 0 -1.28-.23 3.42 3.42 0 0 0 -1.27.23 2.79 2.79 0 0 0 -1 .68 3 3 0 0 0 -.62 1.07 4.94 4.94 0 0 0 0 2.85 3 3 0 0 0 .62 1.07 2.76 2.76 0 0 0 1 .67 3.42 3.42 0 0 0 1.27.23 3.47 3.47 0 0 0 1.28-.23 2.73 2.73 0 0 0 1-.67 2.88 2.88 0 0 0 .61-1.07 4.25 4.25 0 0 0 .22-1.43z"/><path d="m309.41 68.32v9.18h-.76a.65.65 0 0 1 -.29-.06.6.6 0 0 1 -.23-.2l-5-6.48v.37 6.37h-1.31v-9.18h.94.13a.3.3 0 0 1 .1.07l.11.13 5.05 6.48v-.38c0-.13 0-.25 0-.36v-6z"/></g><path d="m84.46 56a.5.5 0 0 1 .37.17l1 1.11a7.23 7.23 0 0 1 -2.57 1.93 9 9 0 0 1 -3.66.68 8.4 8.4 0 0 1 -3.39-.65 7.43 7.43 0 0 1 -2.59-1.81 8 8 0 0 1 -1.62-2.79 10.44 10.44 0 0 1 -.59-3.57 9.75 9.75 0 0 1 .59-3.56 8.13 8.13 0 0 1 1.73-2.78 8 8 0 0 1 2.67-1.82 8.89 8.89 0 0 1 3.44-.64 8.17 8.17 0 0 1 5.75 2.19l-.84 1.19a.88.88 0 0 1 -.21.22.67.67 0 0 1 -.33.08 1 1 0 0 1 -.54-.23 8.22 8.22 0 0 0 -.8-.51 6 6 0 0 0 -1.23-.51 6.3 6.3 0 0 0 -1.82-.23 6.05 6.05 0 0 0 -2.36.45 5.31 5.31 0 0 0 -1.84 1.3 6 6 0 0 0 -1.2 2.08 8.53 8.53 0 0 0 -.42 2.77 8.11 8.11 0 0 0 .44 2.8 6.18 6.18 0 0 0 1.22 2.13 5.25 5.25 0 0 0 1.84 1.29 5.73 5.73 0 0 0 2.28.45 9 9 0 0 0 1.34-.09 5.79 5.79 0 0 0 1.09-.27 4.59 4.59 0 0 0 .94-.47 5.86 5.86 0 0 0 .88-.67.66.66 0 0 1 .2-.14.46.46 0 0 1 .23-.1z" fill="#cd1543"/><path d="m93 47.31a6.46 6.46 0 0 1 2.43.43 5.24 5.24 0 0 1 1.86 1.26 5.59 5.59 0 0 1 1.17 2 8.48 8.48 0 0 1 0 5.21 5.59 5.59 0 0 1 -1.17 2 5.09 5.09 0 0 1 -1.85 1.25 7 7 0 0 1 -4.87 0 5.18 5.18 0 0 1 -1.85-1.25 5.63 5.63 0 0 1 -1.19-2 8.48 8.48 0 0 1 0-5.21 5.63 5.63 0 0 1 1.19-2 5.33 5.33 0 0 1 1.85-1.26 6.51 6.51 0 0 1 2.43-.43zm0 10.69a3 3 0 0 0 2.58-1.16 5.47 5.47 0 0 0 .85-3.28 5.49 5.49 0 0 0 -.85-3.28 3 3 0 0 0 -2.58-1.14 3 3 0 0 0 -2.61 1.17 5.49 5.49 0 0 0 -.86 3.28 5.47 5.47 0 0 0 .86 3.28 3 3 0 0 0 2.61 1.13z" fill="#cd1543"/><path d="m103.76 42v17.69h-2.35v-17.69z" fill="#cd1543"/><path d="m109.29 42v17.69h-2.35v-17.69z" fill="#cd1543"/><path d="m122.52 58a4.55 4.55 0 0 1 -1 .87 6.07 6.07 0 0 1 -1.2.59 6.74 6.74 0 0 1 -1.32.34 8.75 8.75 0 0 1 -1.34.11 6.15 6.15 0 0 1 -2.33-.43 5.05 5.05 0 0 1 -1.86-1.25 5.58 5.58 0 0 1 -1.22-2 8 8 0 0 1 -.44-2.8 7 7 0 0 1 .39-2.37 5.81 5.81 0 0 1 1.14-1.91 5.25 5.25 0 0 1 1.8-1.29 6 6 0 0 1 2.4-.46 5.71 5.71 0 0 1 2.06.36 4.74 4.74 0 0 1 1.63 1.06 5.07 5.07 0 0 1 1.07 1.72 6.5 6.5 0 0 1 .39 2.33 1.45 1.45 0 0 1 -.12.72.48.48 0 0 1 -.44.19h-8a6.24 6.24 0 0 0 .31 1.9 3.84 3.84 0 0 0 .76 1.35 3 3 0 0 0 1.16.81 4.22 4.22 0 0 0 1.5.26 4.5 4.5 0 0 0 1.35-.18 6.24 6.24 0 0 0 1-.39c.28-.14.51-.27.7-.39a1 1 0 0 1 .5-.18.5.5 0 0 1 .44.22zm-1.93-5.71a4.1 4.1 0 0 0 -.2-1.29 2.86 2.86 0 0 0 -.58-1 2.78 2.78 0 0 0 -.94-.67 3.55 3.55 0 0 0 -3.59.61 4.15 4.15 0 0 0 -1.07 2.37z" fill="#cd1543"/><path d="m135.44 48v.88q0 .44-.54.54l-1.31.19a4.09 4.09 0 0 1 .27.79 4 4 0 0 1 .09.87 3.7 3.7 0 0 1 -.34 1.62 3.94 3.94 0 0 1 -1 1.25 4.55 4.55 0 0 1 -1.46.79 6.1 6.1 0 0 1 -1.86.27 6.31 6.31 0 0 1 -1.54-.18 1.9 1.9 0 0 0 -.55.48.9.9 0 0 0 -.19.51.66.66 0 0 0 .36.62 2.55 2.55 0 0 0 .92.3 11.71 11.71 0 0 0 1.31.11c.49 0 1 0 1.5.08a12.29 12.29 0 0 1 1.5.19 4.59 4.59 0 0 1 1.31.44 2.57 2.57 0 0 1 .92.84 2.45 2.45 0 0 1 .36 1.39 3.29 3.29 0 0 1 -.39 1.54 4.15 4.15 0 0 1 -1.14 1.32 5.92 5.92 0 0 1 -1.81.92 7.85 7.85 0 0 1 -2.42.35 9.12 9.12 0 0 1 -2.36-.27 5.49 5.49 0 0 1 -1.67-.7 3.08 3.08 0 0 1 -1-1 2.46 2.46 0 0 1 -.33-1.22 2.21 2.21 0 0 1 .56-1.51 3.55 3.55 0 0 1 1.52-1 2.14 2.14 0 0 1 -.84-.66 1.74 1.74 0 0 1 -.31-1.09 1.81 1.81 0 0 1 .09-.55 2.34 2.34 0 0 1 .3-.56 2.72 2.72 0 0 1 .49-.54 3.34 3.34 0 0 1 .68-.45 4 4 0 0 1 -1.42-1.34 4 4 0 0 1 -.14-3.62 3.9 3.9 0 0 1 1-1.24 4.28 4.28 0 0 1 1.48-.79 6.16 6.16 0 0 1 1.87-.28 5.36 5.36 0 0 1 2.73.66zm-2.37 12.38a1 1 0 0 0 -.24-.69 1.55 1.55 0 0 0 -.66-.41 4.69 4.69 0 0 0 -1-.22c-.37 0-.76-.08-1.16-.1l-1.24-.07a11.71 11.71 0 0 1 -1.23-.11 3.36 3.36 0 0 0 -1 .76 1.48 1.48 0 0 0 -.41 1 1.39 1.39 0 0 0 .2.72 1.71 1.71 0 0 0 .61.58 3.66 3.66 0 0 0 1 .39 7.28 7.28 0 0 0 1.5.13 7 7 0 0 0 1.56-.16 3.78 3.78 0 0 0 1.11-.42 1.91 1.91 0 0 0 .68-.64 1.47 1.47 0 0 0 .28-.81zm-3.74-6.72a3.3 3.3 0 0 0 1.1-.17 2 2 0 0 0 .79-.48 1.79 1.79 0 0 0 .48-.73 2.67 2.67 0 0 0 .17-.95 2.25 2.25 0 0 0 -.65-1.69 3.12 3.12 0 0 0 -3.76 0 2.25 2.25 0 0 0 -.65 1.69 2.58 2.58 0 0 0 .17.94 1.79 1.79 0 0 0 .48.73 2 2 0 0 0 .79.48 3 3 0 0 0 1.08.13z" fill="#cd1543"/><path d="m147.12 58a4.38 4.38 0 0 1 -1 .87 5.58 5.58 0 0 1 -1.2.59 6.47 6.47 0 0 1 -1.31.34 8.75 8.75 0 0 1 -1.34.11 6.11 6.11 0 0 1 -2.33-.43 5.05 5.05 0 0 1 -1.86-1.25 5.59 5.59 0 0 1 -1.23-2 8.28 8.28 0 0 1 -.43-2.8 7 7 0 0 1 .39-2.37 5.65 5.65 0 0 1 1.19-2 5.25 5.25 0 0 1 1.8-1.29 5.94 5.94 0 0 1 2.4-.46 5.71 5.71 0 0 1 2.06.36 4.74 4.74 0 0 1 1.63 1.06 5.07 5.07 0 0 1 1.07 1.72 6.5 6.5 0 0 1 .39 2.33 1.45 1.45 0 0 1 -.12.72.48.48 0 0 1 -.44.19h-8a6.55 6.55 0 0 0 .32 1.9 3.69 3.69 0 0 0 .76 1.35 3 3 0 0 0 1.16.81 4.14 4.14 0 0 0 1.5.26 4.5 4.5 0 0 0 1.35-.18 6.66 6.66 0 0 0 1-.39c.28-.14.51-.27.7-.39a.93.93 0 0 1 .49-.18.51.51 0 0 1 .45.22zm-1.93-5.71a4.1 4.1 0 0 0 -.19-1.29 3 3 0 0 0 -.58-1 2.78 2.78 0 0 0 -.94-.67 3.55 3.55 0 0 0 -3.59.61 4.16 4.16 0 0 0 -1.08 2.37z" fill="#cd1543"/><path d="m161.08 47.31a6.53 6.53 0 0 1 2.43.43 5.2 5.2 0 0 1 1.84 1.26 5.59 5.59 0 0 1 1.17 2 8.48 8.48 0 0 1 0 5.21 5.59 5.59 0 0 1 -1.17 2 5.05 5.05 0 0 1 -1.84 1.25 7 7 0 0 1 -4.88 0 5.18 5.18 0 0 1 -1.85-1.25 5.61 5.61 0 0 1 -1.18-2 8.29 8.29 0 0 1 0-5.21 5.61 5.61 0 0 1 1.18-2 5.33 5.33 0 0 1 1.85-1.26 6.56 6.56 0 0 1 2.45-.43zm0 10.72a3 3 0 0 0 2.58-1.16 5.54 5.54 0 0 0 .85-3.28 5.56 5.56 0 0 0 -.85-3.28 3 3 0 0 0 -2.58-1.17 3 3 0 0 0 -2.61 1.17 5.42 5.42 0 0 0 -.86 3.28 5.4 5.4 0 0 0 .86 3.28 3 3 0 0 0 2.61 1.13z" fill="#cd1543"/><path d="m169.84 59.69v-10.27l-1.28-.16a1 1 0 0 1 -.45-.2.49.49 0 0 1 -.17-.4v-1h1.9v-1.1a5.34 5.34 0 0 1 .3-1.86 3.7 3.7 0 0 1 .85-1.39 3.59 3.59 0 0 1 1.35-.86 4.9 4.9 0 0 1 1.77-.3 4.61 4.61 0 0 1 1.52.24v1.18a.32.32 0 0 1 -.09.23.66.66 0 0 1 -.22.12h-.34-.43a3.31 3.31 0 0 0 -1 .14 1.66 1.66 0 0 0 -.76.44 2.12 2.12 0 0 0 -.48.82 4.18 4.18 0 0 0 -.16 1.27v1h3.42v1.7h-3.35v10.3z" fill="#cd1543"/><path d="m194.72 57.61v2.08h-10.72v-17.23h10.68v2.07h-8.08v5.47h6.53v2h-6.53v5.61z" fill="#cd1543"/><path d="m199.17 49.19a8.51 8.51 0 0 1 .83-.77 5.31 5.31 0 0 1 .92-.59 5 5 0 0 1 1-.39 5.13 5.13 0 0 1 1.2-.13 4.44 4.44 0 0 1 1.77.33 3.67 3.67 0 0 1 1.28.94 4.26 4.26 0 0 1 .83 1.42 6.59 6.59 0 0 1 .26 1.89v7.76h-2.36v-7.72a3.12 3.12 0 0 0 -.6-2 2.25 2.25 0 0 0 -1.84-.72 3.49 3.49 0 0 0 -1.68.42 5.65 5.65 0 0 0 -1.46 1.16v8.94h-2.32v-12.23h1.4a.56.56 0 0 1 .6.5z" fill="#cd1543"/><path d="m220.6 48v.88q0 .44-.54.54l-1.31.19a4.06 4.06 0 0 1 .26.79 3.46 3.46 0 0 1 .1.87 3.69 3.69 0 0 1 -1.31 2.87 4.45 4.45 0 0 1 -1.46.79 6 6 0 0 1 -1.85.27 6.4 6.4 0 0 1 -1.55-.18 2 2 0 0 0 -.55.48.88.88 0 0 0 -.18.51.67.67 0 0 0 .35.62 2.68 2.68 0 0 0 .93.3 11.51 11.51 0 0 0 1.3.11c.5 0 1 0 1.5.08a12.29 12.29 0 0 1 1.5.19 4.49 4.49 0 0 1 1.31.44 2.68 2.68 0 0 1 .93.84 2.53 2.53 0 0 1 .35 1.39 3.29 3.29 0 0 1 -.39 1.54 4.24 4.24 0 0 1 -1.13 1.32 6 6 0 0 1 -1.82.92 7.85 7.85 0 0 1 -2.42.35 9.18 9.18 0 0 1 -2.36-.27 5.6 5.6 0 0 1 -1.67-.7 3 3 0 0 1 -1-1 2.46 2.46 0 0 1 -.33-1.22 2.2 2.2 0 0 1 .55-1.51 3.68 3.68 0 0 1 1.52-1 2.14 2.14 0 0 1 -.84-.66 1.81 1.81 0 0 1 -.31-1.09 1.56 1.56 0 0 1 .1-.55 2 2 0 0 1 .29-.56 3.07 3.07 0 0 1 .49-.54 3.65 3.65 0 0 1 .68-.45 3.87 3.87 0 0 1 -1.41-1.34 3.6 3.6 0 0 1 -.52-2 3.65 3.65 0 0 1 1.31-2.86 4.47 4.47 0 0 1 1.48-.79 6.23 6.23 0 0 1 1.88-.28 5.35 5.35 0 0 1 2.72.66zm-2.38 12.38a1 1 0 0 0 -.24-.69 1.58 1.58 0 0 0 -.65-.41 4.8 4.8 0 0 0 -1-.22c-.37 0-.75-.08-1.16-.1l-1.17-.12a11.76 11.76 0 0 1 -1.22-.11 3.41 3.41 0 0 0 -1 .76 1.47 1.47 0 0 0 -.4 1 1.31 1.31 0 0 0 .2.72 1.63 1.63 0 0 0 .61.58 3.48 3.48 0 0 0 1 .39 7.32 7.32 0 0 0 1.51.13 6.92 6.92 0 0 0 1.52-.15 3.78 3.78 0 0 0 1.11-.42 2 2 0 0 0 .69-.64 1.55 1.55 0 0 0 .2-.77zm-3.73-6.72a3.39 3.39 0 0 0 1.1-.17 2.1 2.1 0 0 0 .79-.48 2 2 0 0 0 .48-.73 2.67 2.67 0 0 0 .16-.95 2.25 2.25 0 0 0 -.64-1.69 3.14 3.14 0 0 0 -3.77 0 2.25 2.25 0 0 0 -.64 1.69 2.58 2.58 0 0 0 .16.94 2 2 0 0 0 .48.73 2.1 2.1 0 0 0 .79.48 3.08 3.08 0 0 0 1.09.13z" fill="#cd1543"/><path d="m225.35 43.73a1.64 1.64 0 0 1 -.13.62 1.68 1.68 0 0 1 -.36.51 1.54 1.54 0 0 1 -.52.35 1.5 1.5 0 0 1 -.62.13 1.47 1.47 0 0 1 -.62-.13 1.6 1.6 0 0 1 -.51-.35 1.63 1.63 0 0 1 -.34-.51 1.47 1.47 0 0 1 -.13-.62 1.51 1.51 0 0 1 .13-.63 1.67 1.67 0 0 1 .34-.52 1.75 1.75 0 0 1 .51-.34 1.47 1.47 0 0 1 .62-.13 1.5 1.5 0 0 1 .62.13 1.67 1.67 0 0 1 .52.34 1.73 1.73 0 0 1 .36.52 1.69 1.69 0 0 1 .13.63zm-.45 3.77v12.19h-2.34v-12.19z" fill="#cd1543"/><path d="m230.31 49.19a8.51 8.51 0 0 1 .83-.77 5.31 5.31 0 0 1 .92-.59 5 5 0 0 1 1-.39 5.13 5.13 0 0 1 1.2-.13 4.44 4.44 0 0 1 1.77.33 3.67 3.67 0 0 1 1.28.94 4.26 4.26 0 0 1 .78 1.46 6.59 6.59 0 0 1 .26 1.89v7.76h-2.35v-7.76a3.12 3.12 0 0 0 -.6-2 2.25 2.25 0 0 0 -1.84-.72 3.49 3.49 0 0 0 -1.68.42 5.65 5.65 0 0 0 -1.46 1.16v8.94h-2.34v-12.23h1.4a.56.56 0 0 1 .61.47z" fill="#cd1543"/><path d="m251.47 58a4.38 4.38 0 0 1 -1 .87 5.58 5.58 0 0 1 -1.2.59 6.47 6.47 0 0 1 -1.31.34 8.75 8.75 0 0 1 -1.34.11 6.11 6.11 0 0 1 -2.33-.43 5.05 5.05 0 0 1 -1.86-1.25 5.46 5.46 0 0 1 -1.23-2 8.27 8.27 0 0 1 -.44-2.8 7 7 0 0 1 .4-2.37 5.62 5.62 0 0 1 1.13-1.91 5.38 5.38 0 0 1 1.81-1.29 5.94 5.94 0 0 1 2.4-.46 5.75 5.75 0 0 1 2.06.36 4.61 4.61 0 0 1 1.62 1.06 4.94 4.94 0 0 1 1.08 1.72 6.5 6.5 0 0 1 .39 2.33 1.45 1.45 0 0 1 -.12.72.48.48 0 0 1 -.45.19h-8a6.92 6.92 0 0 0 .31 1.9 3.85 3.85 0 0 0 .77 1.35 3.09 3.09 0 0 0 1.15.81 4.22 4.22 0 0 0 1.5.26 4.5 4.5 0 0 0 1.35-.18 6.81 6.81 0 0 0 1-.39 7.74 7.74 0 0 0 .69-.39 1 1 0 0 1 .5-.18.52.52 0 0 1 .45.22zm-1.93-5.71a4.1 4.1 0 0 0 -.2-1.29 3 3 0 0 0 -.58-1 2.78 2.78 0 0 0 -.94-.67 3.55 3.55 0 0 0 -3.59.61 4.09 4.09 0 0 0 -1.08 2.37z" fill="#cd1543"/><path d="m264.13 58a4.38 4.38 0 0 1 -1 .87 5.58 5.58 0 0 1 -1.2.59 6.47 6.47 0 0 1 -1.31.34 8.75 8.75 0 0 1 -1.34.11 6.11 6.11 0 0 1 -2.33-.43 5.05 5.05 0 0 1 -1.86-1.25 5.46 5.46 0 0 1 -1.23-2 8.27 8.27 0 0 1 -.44-2.8 7 7 0 0 1 .4-2.37 5.62 5.62 0 0 1 1.18-2 5.38 5.38 0 0 1 1.81-1.29 5.94 5.94 0 0 1 2.4-.46 5.75 5.75 0 0 1 2.06.36 4.61 4.61 0 0 1 1.62 1.06 4.94 4.94 0 0 1 1.08 1.72 6.5 6.5 0 0 1 .39 2.33 1.45 1.45 0 0 1 -.12.72.48.48 0 0 1 -.45.19h-8a6.92 6.92 0 0 0 .31 1.9 3.85 3.85 0 0 0 .77 1.35 3.09 3.09 0 0 0 1.15.81 4.22 4.22 0 0 0 1.5.26 4.5 4.5 0 0 0 1.35-.18 6.81 6.81 0 0 0 1-.39 7.74 7.74 0 0 0 .69-.39 1 1 0 0 1 .5-.18.52.52 0 0 1 .45.22zm-1.93-5.71a4.1 4.1 0 0 0 -.2-1.29 3 3 0 0 0 -.58-1 2.78 2.78 0 0 0 -.94-.67 3.55 3.55 0 0 0 -3.59.61 4.09 4.09 0 0 0 -1.08 2.37z" fill="#cd1543"/><path d="m269 49.84a5.63 5.63 0 0 1 1.38-1.84 3.06 3.06 0 0 1 2-.68 3 3 0 0 1 .75.09 1.85 1.85 0 0 1 .62.27l-.15 1.76a.39.39 0 0 1 -.4.33 2.41 2.41 0 0 1 -.5-.07 4.2 4.2 0 0 0 -.72-.06 2.8 2.8 0 0 0 -1 .16 2.27 2.27 0 0 0 -.77.48 3.25 3.25 0 0 0 -.61.78 7.34 7.34 0 0 0 -.49 1.05v7.63h-2.34v-12.24h1.34a.69.69 0 0 1 .52.14.83.83 0 0 1 .2.48z" fill="#cd1543"/><path d="m278.33 43.73a1.47 1.47 0 0 1 -.13.62 1.65 1.65 0 0 1 -.35.51 1.54 1.54 0 0 1 -.52.35 1.51 1.51 0 0 1 -.63.13 1.42 1.42 0 0 1 -.61-.13 1.6 1.6 0 0 1 -.51-.35 1.65 1.65 0 0 1 -.35-.51 1.63 1.63 0 0 1 -.12-.62 1.68 1.68 0 0 1 .12-.63 1.7 1.7 0 0 1 .35-.52 1.75 1.75 0 0 1 .51-.34 1.42 1.42 0 0 1 .61-.13 1.51 1.51 0 0 1 .63.13 1.67 1.67 0 0 1 .52.34 1.7 1.7 0 0 1 .35.52 1.51 1.51 0 0 1 .13.63zm-.44 3.77v12.19h-2.34v-12.19z" fill="#cd1543"/><path d="m283.3 49.19a7.5 7.5 0 0 1 .83-.77 5.22 5.22 0 0 1 2-1 5 5 0 0 1 1.19-.13 4.37 4.37 0 0 1 1.77.33 3.58 3.58 0 0 1 1.28.94 3.94 3.94 0 0 1 .78 1.46 6.25 6.25 0 0 1 .27 1.89v7.76h-2.42v-7.74a3.12 3.12 0 0 0 -.6-2 2.25 2.25 0 0 0 -1.83-.72 3.56 3.56 0 0 0 -1.69.42 5.82 5.82 0 0 0 -1.46 1.16v8.94h-2.32v-12.23h1.41a.56.56 0 0 1 .61.47z" fill="#cd1543"/><path d="m304.72 48v.88q0 .44-.54.54l-1.31.19a4.09 4.09 0 0 1 .27.79 4 4 0 0 1 .09.87 3.7 3.7 0 0 1 -.34 1.62 3.94 3.94 0 0 1 -1 1.25 4.55 4.55 0 0 1 -1.46.79 6.1 6.1 0 0 1 -1.86.27 6.31 6.31 0 0 1 -1.54-.18 1.9 1.9 0 0 0 -.55.48.9.9 0 0 0 -.19.51.66.66 0 0 0 .36.62 2.55 2.55 0 0 0 .92.3 11.71 11.71 0 0 0 1.31.11c.49 0 1 0 1.5.08a12.29 12.29 0 0 1 1.5.19 4.59 4.59 0 0 1 1.31.44 2.57 2.57 0 0 1 .92.84 2.45 2.45 0 0 1 .36 1.39 3.29 3.29 0 0 1 -.39 1.54 4.15 4.15 0 0 1 -1.08 1.27 5.92 5.92 0 0 1 -1.81.92 7.85 7.85 0 0 1 -2.42.35 9.12 9.12 0 0 1 -2.36-.27 5.49 5.49 0 0 1 -1.67-.7 3.08 3.08 0 0 1 -1-1 2.46 2.46 0 0 1 -.33-1.22 2.21 2.21 0 0 1 .56-1.51 3.55 3.55 0 0 1 1.52-1 2.14 2.14 0 0 1 -.84-.66 1.74 1.74 0 0 1 -.31-1.09 1.81 1.81 0 0 1 .09-.55 2.34 2.34 0 0 1 .3-.56 2.72 2.72 0 0 1 .49-.54 3.34 3.34 0 0 1 .68-.45 4 4 0 0 1 -1.42-1.34 4 4 0 0 1 -.17-3.57 3.9 3.9 0 0 1 1-1.24 4.28 4.28 0 0 1 1.48-.79 6.16 6.16 0 0 1 1.87-.28 5.36 5.36 0 0 1 2.73.66zm-2.37 12.38a1 1 0 0 0 -.24-.69 1.55 1.55 0 0 0 -.66-.41 4.69 4.69 0 0 0 -1-.22c-.37 0-.76-.08-1.16-.1l-1.24-.07a11.71 11.71 0 0 1 -1.23-.11 3.36 3.36 0 0 0 -1 .76 1.48 1.48 0 0 0 -.41 1 1.39 1.39 0 0 0 .2.72 1.71 1.71 0 0 0 .61.58 3.66 3.66 0 0 0 1.05.39 7.28 7.28 0 0 0 1.5.13 7 7 0 0 0 1.53-.15 3.78 3.78 0 0 0 1.11-.42 1.91 1.91 0 0 0 .68-.64 1.47 1.47 0 0 0 .26-.82zm-3.74-6.72a3.3 3.3 0 0 0 1.1-.17 2 2 0 0 0 .79-.48 1.79 1.79 0 0 0 .48-.73 2.67 2.67 0 0 0 .17-.95 2.25 2.25 0 0 0 -.65-1.69 3.12 3.12 0 0 0 -3.76 0 2.25 2.25 0 0 0 -.65 1.69 2.58 2.58 0 0 0 .17.94 1.79 1.79 0 0 0 .48.73 2 2 0 0 0 .79.48 3 3 0 0 0 1.08.13z" fill="#cd1543"/></g></svg>